<svg width="21" height="21" fill="none" xmlns="http://www.w3.org/2000/svg"><path fill-rule="evenodd" clip-rule="evenodd" d="M10.751.684C5.185.672.673 5.125.667 10.64c-.006 5.52 4.446 10.033 9.915 10.045 5.566.013 10.078-4.44 10.085-9.954C20.673 5.213 16.22.7 10.75.684zm4.897 7.447c.006.11.006.222.006.331 0 3.397-2.586 7.312-7.31 7.312a7.283 7.283 0 0 1-3.94-1.154c.2.025.406.035.612.035 1.204 0 2.311-.41 3.193-1.101a2.574 2.574 0 0 1-2.402-1.786 2.557 2.557 0 0 0 1.16-.044 2.57 2.57 0 0 1-2.06-2.52v-.032c.347.194.741.31 1.163.322a2.573 2.573 0 0 1-.797-3.43A7.305 7.305 0 0 0 10.57 8.75a2.57 2.57 0 0 1 4.38-2.342 5.18 5.18 0 0 0 1.633-.623c-.19.6-.6 1.104-1.129 1.423a5.18 5.18 0 0 0 1.476-.403 5.271 5.271 0 0 1-1.282 1.326z" fill="#FDB515"/></svg>