<svg width="75" height="49" viewBox="0 0 75 49" fill="none" xmlns="http://www.w3.org/2000/svg">
<path d="M0.371094 30.5078C0.371094 24.3229 2.68229 18.3659 7.30469 12.6367C11.9922 6.90755 17.2005 2.74089 22.9297 0.136719L24.7852 4.04297C20.2279 6.64714 16.3216 9.90234 13.0664 13.8086C9.8763 17.6497 8.28125 21.556 8.28125 25.5273C8.28125 26.3086 8.50911 26.8945 8.96484 27.2852C9.48568 27.6758 10.1367 27.8711 10.918 27.8711C15.1497 27.4154 17.4284 27.1875 17.7539 27.1875C19.9023 27.1875 22.2135 27.9688 24.6875 29.5312C27.2266 31.0938 28.4961 33.763 28.4961 37.5391C28.4961 40.7292 27.4544 43.431 25.3711 45.6445C23.2878 47.8581 20.3255 48.9648 16.4844 48.9648C11.9922 48.9648 8.18359 47.2396 5.05859 43.7891C1.93359 40.2734 0.371094 35.8464 0.371094 30.5078ZM46.2695 31.2891C46.2695 24.3229 48.6133 18.0404 53.3008 12.4414C58.0534 6.77734 63.2292 2.67578 68.8281 0.136719L70.6836 4.04297C66.1263 6.64714 62.2201 9.86979 58.9648 13.7109C55.7747 17.487 54.1797 21.3607 54.1797 25.332C54.1797 26.0482 54.375 26.6667 54.7656 27.1875C55.1562 27.6432 55.8398 27.8711 56.8164 27.8711C60.9831 27.4154 63.2617 27.1875 63.6523 27.1875C66.0612 27.1875 68.4375 28.0664 70.7812 29.8242C73.1901 31.5169 74.3945 34.056 74.3945 37.4414C74.3945 40.1107 73.4505 42.7148 71.5625 45.2539C69.7396 47.7279 66.6471 48.9648 62.2852 48.9648C57.5977 48.9648 53.7565 47.1745 50.7617 43.5938C47.7669 39.9479 46.2695 35.8464 46.2695 31.2891Z" fill="#EAEAEA"/>
</svg>
