<svg width="20" height="21" fill="none" xmlns="http://www.w3.org/2000/svg"><path d="M10.014.684C4.493.678-.009 5.181 0 10.706c.01 5.45 4.468 9.944 9.905 9.978 5.537.034 10.073-4.434 10.095-9.944C20.019 5.212 15.53.69 10.014.684zm5.668 12.874c-.137.513-.537.92-1.047 1.057-.925.25-4.633.25-4.633.25s-3.712 0-4.634-.25a1.485 1.485 0 0 1-1.047-1.057c-.247-.932-.247-2.874-.247-2.874s0-1.942.247-2.874c.137-.512.538-.919 1.047-1.056.926-.25 4.633-.25 4.633-.25s3.712 0 4.634.25c.51.137.913.54 1.047 1.056.247.932.247 2.874.247 2.874s0 1.942-.247 2.874z" fill="#FDB515"/><path d="M8.785 12.448l3.102-1.764-3.102-1.763v3.527z" fill="#FDB515"/></svg>