<svg width="21" height="21" fill="none" xmlns="http://www.w3.org/2000/svg"><path d="M10.333 12.632a1.948 1.948 0 1 0 0-3.896 1.948 1.948 0 0 0 0 3.896z" fill="#FDB515"/><path d="M14.893 7.235a1.79 1.79 0 0 0-.438-.672 1.83 1.83 0 0 0-.673-.438c-.206-.081-.516-.175-1.085-.2-.616-.028-.8-.034-2.364-.034-1.56 0-1.744.006-2.364.034-.569.025-.878.122-1.085.2a1.79 1.79 0 0 0-.672.438c-.203.203-.331.4-.438.672-.081.207-.175.516-.2 1.085-.028.616-.034.8-.034 2.364 0 1.564.006 1.745.034 2.364.025.57.122.879.2 1.085.107.272.232.47.438.673.203.203.4.331.672.437.207.082.516.175 1.085.2.616.029.8.035 2.364.035 1.56 0 1.745-.006 2.364-.034.57-.026.879-.123 1.085-.2a1.79 1.79 0 0 0 .673-.438c.203-.204.331-.4.438-.673.08-.206.175-.516.2-1.085.028-.616.034-.8.034-2.364 0-1.563-.006-1.745-.034-2.364-.025-.569-.122-.878-.2-1.085zm-4.56 6.451a3.003 3.003 0 1 1 .002-6.005 3.003 3.003 0 0 1-.002 6.005zm3.121-5.422a.7.7 0 1 1 0-1.4.7.7 0 1 1 0 1.4z" fill="#FDB515"/><path d="M10.333.684c-5.522 0-10 4.478-10 10s4.478 10 10 10 10-4.478 10-10-4.477-10-10-10zm5.813 12.411c-.028.622-.128 1.048-.272 1.42-.15.384-.35.71-.675 1.035-.325.325-.65.525-1.035.675-.372.144-.797.244-1.42.272-.622.028-.822.035-2.41.035-1.59 0-1.786-.007-2.412-.035-.622-.028-1.047-.128-1.42-.272-.384-.15-.709-.35-1.034-.675a2.874 2.874 0 0 1-.676-1.035c-.143-.372-.244-.798-.272-1.42-.028-.622-.034-.822-.034-2.41 0-1.59.006-1.786.034-2.412.028-.622.129-1.047.272-1.42.15-.384.35-.71.676-1.034.325-.326.65-.526 1.035-.676.372-.144.797-.244 1.42-.272.622-.028.822-.034 2.41-.034 1.589 0 1.786.006 2.411.034.623.028 1.048.128 1.42.272.384.15.71.35 1.035.676.325.325.525.65.675 1.035.144.372.244.797.272 1.42.028.622.035.822.035 2.41 0 1.589-.007 1.789-.035 2.411z" fill="#FDB515"/></svg>